<?xml version="1.0" encoding="utf-8"?>
<!-- Generator: Adobe Illustrator 19.0.0, SVG Export Plug-In . SVG Version: 6.00 Build 0)  -->
<svg version="1.1" id="Camada_1" xmlns="http://www.w3.org/2000/svg" xmlns:xlink="http://www.w3.org/1999/xlink" x="0px" y="0px"
	 viewBox="0 0 492.2 73.7" style="enable-background:new 0 0 492.2 73.7;" xml:space="preserve">
<style type="text/css">
	.st0{fill:#FFFFFF;}
	.st1{fill:#FEB800;}
</style>
<g id="XMLID_16_" transform="translate(0.000000,250.000000) scale(0.100000,-0.100000)">
	<path id="XMLID_34_" class="st0" d="M218.3,2497.8c-92.7-12-165.7-53.2-192.1-108c-16.5-34.6-19-87-5.4-114.2
		c17.7-35,68-68,104.7-68c13.6,0,13.6,0,18.5,27.2c2.5,15.3,2.9,28.9,1.2,30.5c-1.6,1.6-11.1,4.9-20.2,7.4
		c-49.9,14.4-56.1,63.9-12.8,105.9c25.6,24.7,54,36.7,104.3,43.7c79.1,11.1,158.3-19.4,185.9-71.7c10.3-19.4,9.5-66-1.6-87.4
		c-16.5-31.3-53.2-55.6-83.3-55.6c-20.2,0-23.1-4.5-26.8-43.7l-2.9-29.7l14-2.5c35.4-6.6,46.6-30.1,50.3-106.3
		c3.3-61.4,9.1-90.3,23.9-115.8c20.6-35,62.2-49.9,114.2-40.8c35.9,6.2,56.9,16.5,82.9,40.8l19.8,18.5l19-16.5
		c23.5-20.6,49.1-33,84.1-40.4c76.7-16.1,142.2,3.3,196.2,57.7c45.8,46.2,63.9,92.7,64.3,164.1c0.4,48.6-6.6,72.1-30.9,105.5
		c-34.6,47-82.4,68.8-148.8,68.4c-108.4-0.8-188.8-61-214.3-160.3c-7.4-28.4-8.2-83.3-1.6-113.4c4.5-20.6,4.1-21.8-7-33.8
		c-16.1-16.9-31.3-23.9-50.3-23.9c-23.1,0-30.1,9.5-34.2,48.2c-1.6,17.7-3.3,47.8-3.7,67.2c-0.4,56.5-13.2,87.4-41.6,98.9
		c-6.6,2.9-12,6.2-12,7.8c0,1.2,10.3,7,23.1,12.4c47.8,20.6,85.7,77.9,90.7,136.8c7,85.7-54.8,156.6-159.9,182.6
		C338.6,2496.2,246.7,2501.5,218.3,2497.8z M806,2186.2c26.4-23.1,32.2-42.5,32.6-106.3c0-53.2-0.4-56.9-12-80
		c-22.3-45.8-45.3-64.3-80-64.3c-50.7,0-79.1,48.6-73.8,125.7c4.1,55.2,27.2,108.4,55.6,127.8c12,7.8,20.2,10.3,38.7,10.3
		C787.9,2199.4,792.9,2197.7,806,2186.2z"/>
	<path id="XMLID_31_" class="st0" d="M2177,2497.4c-13.2-2.5-15.7-10.7-23.5-83.7c-4.1-35-9.1-81.6-12-103l-4.5-39.2l-35-2.1
		l-35-2.1l-4.9-14.4c-6.6-19.8-6.6-39.2,0.8-45.3c3.7-2.9,16.1-4.5,33.8-3.3c27.2,1.2,28,0.8,29.3-9.1
		c2.9-20.2-12.4-130.3-22.7-160.8c-17.7-54-47.8-90.7-74.6-91.5c-16.5-0.4-20.6,2.9-26,20.6c-3.7,12.8-2.1,31.3,8.7,105.9
		c8.2,56.5,12.4,98.9,11.1,112.1c-8.7,87.4-141,118.7-214.3,51.1l-18.1-16.9l-18.5,18.1c-24.7,23.5-52.3,33-98.1,33
		c-36.3,0-65.1-8.7-83.7-25.6c-7-6.2-7.8-6.6-11.5,0c-12.8,22.7-37.5,30.5-77.1,24.3c-14.8-2.5-28-5.8-29.7-7.4
		c-1.6-1.6-7-39.6-12-83.7c-4.9-44.1-10.7-94.4-12.8-111.3c-9.1-72.5-16.5-136-19-163.6l-2.9-30.1h51.9c37.1,0,52.8,1.6,55.2,5.4
		c1.6,2.5,6.2,29.3,10.3,58.5c24.3,190.8,27.2,206.9,45.3,233.7c26.4,38.3,69.2,43.7,90.3,10.7c10.3-16.5,9.9-22.3-8.2-179.3
		c-7-59.8-12.8-112.9-12.8-118.7v-10.7l49.9,1.2c39.6,0.8,51.1,2.5,53.6,7.4c2.9,6.2,8.2,43.7,24.7,183.4
		c9.5,80.8,12.8,91.9,32.2,114.6c21.4,24.3,59.8,30.5,79.1,12.8c17.7-16.1,17.7-24.3-0.4-189.6c-5.4-46.6-2.9-61,14-90.3
		c19.8-33,61-48.2,107.2-39.2c32.6,6.2,45.3,13.2,69.7,36.7c19.4,18.1,20.6,18.5,24.7,10.7c2.9-4.5,12.4-16.1,21.4-25.1
		c13.6-14,21-18.1,41.2-22.3c66-13.6,129.4,16.9,150.5,73c12.8,33.4,12.8,92.3,0.4,125.3c-12,31.3-35.4,66.4-63.5,95.6
		c-19.4,19.8-22.7,25.1-19.8,33c3.3,8.7,4.9,9.1,64.7,9.1l61.4,0.4l1.2,31.7l1.2,31.7h-60.2H2250l2.5,23.9
		c1.6,12.8,4.1,33.8,6.2,46.2c9.9,62.2,13.2,114.6,8.7,129C2259,2493.7,2220.7,2505.7,2177,2497.4z M2263.2,2072.4
		c17.3-35,21.4-81.2,9.5-105.9c-11.5-25.1-41.2-32.6-51.9-13.2c-4.9,9.5-2.9,65.1,5.4,125.7l4.9,38.3l9.1-8.7
		C2245.4,2103.8,2255.7,2087.3,2263.2,2072.4z"/>
	<path id="XMLID_28_" class="st0" d="M3336.5,2497l-12.4-2.9l-10.7-94.4c-6.2-51.9-12.4-102.6-14-112.5l-2.5-17.7h-34.6h-34.6
		l-4.5-15.3c-2.9-8.7-4.1-23.1-3.3-32.2l1.2-16.5h33h33l-0.8-26.8c-0.4-14.8-2.9-40.8-4.9-57.7c-20.6-151.7-21-182.2-2.1-212.7
		c35.4-57.3,138.1-56.1,188,2.1c18.5,21.8,28,53.2,28,94c0,58.5-19,101.4-66.8,152.1c-43.7,46.2-39.6,51.5,38.7,51.1
		c30.1-0.4,57.3-0.4,60.2-0.4c4.1,0.4,4.9,8.2,4.1,30.5l-1.2,29.7l-58.5,1.2c-56.9,0.8-58.9,1.2-58.9,9.9c0,4.5,4.9,46.6,10.7,92.7
		c10.3,79.1,10.7,85.3,4.5,98.5c-3.7,7.4-11.5,16.9-17.3,20.6C3399.6,2497.8,3356.7,2501.5,3336.5,2497z M3423.5,2074.9
		c21.8-42.9,23.1-96.5,2.5-118.7c-14.8-15.7-26.4-18.5-37.9-9.1c-8.7,7-9.9,11.1-9.1,38.3c0.4,28,5.8,83.3,11.5,119.1l2.5,14.4
		l9.9-12.4C3408.7,2100.1,3417.7,2085.6,3423.5,2074.9z"/>
	<path id="XMLID_12_" class="st0" d="M3620.1,2495.8c-7-2.1-18.5-9.5-25.6-16.5c-51.5-51.1,4.1-133.1,71.3-105.1
		c15.7,6.6,33.4,27.6,37.5,44.9c7.4,28.9-16.5,68.4-46.6,77.1C3639.5,2500.7,3637.8,2500.7,3620.1,2495.8z"/>
	<path id="XMLID_24_" class="st0" d="M206.7,2377.1c-12-4.1-23.5-9.1-25.6-11.1c-2.9-3.3-9.1-44.5-27.2-189.2
		c-3.3-26.8-6.6-49.5-7-49.5c-0.4-0.4-12.8-7.4-27.6-15.7C59.6,2079,22.5,2041.9,8,2000.3c-14.8-41.6-9.1-75.4,16.9-103.9
		c26.8-28.9,63.9-37.5,109.6-25.1c62.7,16.5,98.5,69.7,112.5,165.7c2.1,15.7,9.5,66.4,16.5,112.9c6.6,46.6,17.3,116.7,23.1,156.2
		c5.8,39.2,9.1,72.5,7.8,74.2c-1.6,1.2-16.9,2.9-34.2,3.7C237.2,2384.9,222.4,2382.8,206.7,2377.1z M132.1,2013.9
		c-4.1-31.3-15.7-62.2-25.6-68c-7-4.5-32.6-3.3-38.7,2.1c-10.3,8.7-7.4,33.8,6.2,54c13.2,20.2,58.5,56.5,61,49.1
		C135.8,2048.5,134.6,2032,132.1,2013.9z"/>
	<path id="XMLID_21_" class="st0" d="M2963.1,2309c-54-19.4-74.2-78.3-42-123.2l12.4-17.3l-60.2-61.8
		c-63.1-64.7-93.2-105.1-105.9-141c-8.7-24.3-14.4-26.8-25.1-11.1c-6.2,9.5-6.2,15.3-1.6,60.6c2.5,27.6,7.4,69.7,10.7,93.6
		c14.8,106.3,19,145.1,17.3,150c-3.7,9.9-48.2,12.4-75.4,4.5c-20.6-5.8-26.4-6.2-42.5-1.2c-29.7,8.7-96,6.6-130.7-4.1
		c-87.4-26.8-143.9-101.4-152.1-201.6c-5.4-64.7,11.5-115,51.1-150c60.2-53.6,146.3-53.6,203.6,0l11.5,10.7l13.2-15.7
		c19.4-22.3,47.4-33.4,86.1-33.8l31.7-0.4l12-16.5c28-38.3,58.9-54.8,103-55.2c32.2,0,71.3,9.1,79.1,18.5c3.7,4.5,0.4,6.6-17.7,12
		c-52.8,15.3-81.2,48.6-81.2,95.2c0,32.2,12,56.9,46.6,96.5c66.8,76.3,87.8,98.9,93.6,98.9c3.3,0.4,24.3-11.5,46.2-26.4
		c50.3-34.2,65.1-54.4,65.1-88.2c0-33.8-16.9-56.1-43.3-58.5c-24.7-2.1-35,0.8-47.8,12c-16.1,14.4-20.2,40.4-10.3,64.3
		c3.7,9.1,5.8,16.9,4.5,18.1c-4.9,4.9-42.9-14.4-58.1-30.1c-33.8-35-28.4-89.4,12.4-117.1c75.4-51.9,214.3-16.1,250.6,64.3
		c12.8,28.9,12.8,82.9,0,107.6c-21,39.6-47.8,61.8-120.8,98.1c-26,12.8-47.8,23.9-48.6,24.7c-0.8,0.4,1.6,9.9,5.4,20.6
		c9.9,28.9,8.7,59.4-2.5,75.8C3034.4,2309.5,2996.5,2321,2963.1,2309z M2644,2194.9c4.1-4.5,4.5-13.2,1.6-36.7
		c-2.1-16.9-6.6-56.5-9.9-87.8c-7-65.5-15.7-87.8-43.7-111.7c-15.7-13.2-19.8-14.8-41.6-14.8c-23.1,0-25.1,0.8-42,18.1
		c-23.5,23.5-29.7,49.1-23.5,98.5c9.5,77.9,34.6,119.9,81.6,137.3C2585.9,2205.2,2636.2,2203.1,2644,2194.9z"/>
	<path id="XMLID_18_" class="st0" d="M1176.6,2266.6c-77.1-8.2-146.3-58.9-176-128.6c-12.8-30.1-13.2-33.4-13.6-89
		c0-57.7,0-57.7,14-85.7c37.5-74.6,125.3-111.7,217.6-91.9c72.1,15.7,128.2,67.2,156.6,144.7c5.8,16.1,7.4,32.6,7.4,76.3
		c0,52.8-0.8,56.9-11.5,79.1c-19.8,40.4-57.3,73.4-99.8,87C1249.2,2265.8,1203.4,2269.9,1176.6,2266.6z M1236.8,2185
		c20.6-19.4,29.3-44.1,31.3-89c2.5-44.9-2.5-73.8-17.7-104.3c-21.4-42.5-43.7-57.7-81.2-55.2c-22.7,1.6-26,3.3-40.4,18.5
		c-36.3,38.7-38.3,120.4-5.4,190c10.7,21.8,19,33.4,31.7,42.5c15.7,11.5,19.8,12.4,42.9,11.1
		C1219.9,2197.3,1226.1,2194.9,1236.8,2185z"/>
	<path id="XMLID_1_" class="st0" d="M3899.6,2265.3c-50.7-7.8-117.1-54-146.3-102.2c-24.3-40.4-35.9-102.2-27.6-149.2
		c3.3-19.8,2.5-24.3-4.5-36.3c-12.8-21-32.6-33.8-51.5-33.8c-30.1,0-33.4,15.3-21.8,99.8c17.7,127.8,27.6,211.5,25.6,216.8
		c-2.9,8.2-65.5,6.2-85.3-2.9c-28.4-13.2-28.9-14-41.2-122c-20.6-182.2-20.6-179.3-12.4-205.7c13.2-41.6,49.5-64.3,103-64.3
		c35.4,0,66,13.6,94.4,41.6c13.6,13.6,24.7,24.3,25.1,24.3c0.4,0,9.9-8.2,21-18.5c45.3-41.6,102.2-55.6,169.8-41.2
		c27.2,5.8,34.6,7.8,66.8,21.8c46.2,19.8,112.9,77.9,148,128.6c9.1,13.6,16.9,26.4,16.9,28c0,5.4-26.8,42-30.9,42
		c-2.1-0.4-10.7-10.7-18.5-23.1c-14.4-22.7-56.5-67.2-82.4-86.6c-7.8-6.2-28.4-17.7-45.3-25.6c-27.6-13.2-34.6-14.8-66-15.3
		c-32.2,0-36.3,0.8-53.6,12.4c-12.8,8.7-22.3,19.8-30.9,37.1c-11.5,22.7-12.4,26.8-12,69.7c0,50.7,7,74.2,30.9,107.6
		c28.9,40.4,83.3,47.8,101,13.6c6.6-13.2,6.6-39.2-0.8-80.4c-2.1-11.5-1.2-13.6,5.4-13.6c18.5,0,52.3,13.6,67.6,27.6
		c21.8,19.8,28.4,33.4,28.4,59.4c0,37.9-25.6,68.4-70.1,84.1C3981.6,2266.6,3927.6,2269.9,3899.6,2265.3z"/>
</g>
<path id="XMLID_22_" class="st1" d="M481.2,68.1h-47.5c-3.3,0-6-2.7-6-6V14.5c0-3.3,2.7-6,6-6h47.5c3.3,0,6,2.7,6,6V62
	C487.2,65.3,484.5,68.1,481.2,68.1z"/>
<g id="XMLID_218_">
	<g id="XMLID_221_">
		<path id="XMLID_3_" d="M442.1,19.1c0.1-0.2,0.2-0.3,0.5-0.3c2.1,0,4.1,0,6.2,0c0.3,0,0.6,0.4,0.6,0.7c0,1,0,37.2,0,37.6
			c0,0.4-0.2,0.6-0.6,0.6c-2.2,0-4.3,0-6.5,0c-0.3,0-0.3-0.2-0.3-0.4C442,54.8,442.1,19.3,442.1,19.1z"/>
		<path id="XMLID_4_" d="M457.5,57.3c0,0.3-0.1,0.4-0.5,0.4c-2.2,0-4.3,0-6.5,0c-0.2,0-0.4-0.1-0.4-0.3c0-0.5,0-36.3,0-37.8
			c0-0.6,0.2-0.8,0.8-0.8c1.9,0,3.8,0,5.7,0c0.6,0,0.8,0.3,0.8,0.8C457.5,22.5,457.5,57.2,457.5,57.3z"/>
		<path id="XMLID_5_" d="M472.9,57.4c0,0.6-0.3,0.2-0.4,0.1c-0.3-0.8-6.6-19.8-6.8-20.4c-0.1-0.4-0.2-0.8-0.3-1.2
			c0-5.4,0-10.9,0-16.3c0-0.4,0.2-0.7,0.6-0.7c2,0,4,0,6,0c0.5,0,0.8,0.2,0.8,0.8C472.9,21.7,472.9,56.7,472.9,57.4z"/>
		<path id="XMLID_6_" d="M458.3,19.2c0-0.7,0.3-0.1,0.3-0.1c0.2,0.5,12.6,37.9,12.7,38.3c0.1,0.3,0,0.3-0.3,0.3c-2.1,0-4.2,0-6.4,0
			c-0.1,0-0.3-0.1-0.4-0.3c-0.2-0.5-5.3-16.1-5.7-17.2c-0.3-0.9-0.3-1.7-0.3-2.6C458.3,34.9,458.3,19.4,458.3,19.2z"/>
	</g>
</g>
</svg>
